<?xml version="1.0" encoding="utf-8"?>
<!-- Generator: Adobe Illustrator 19.0.0, SVG Export Plug-In . SVG Version: 6.00 Build 0)  -->
<svg xmlns="http://www.w3.org/2000/svg" xmlns:xlink="http://www.w3.org/1999/xlink" version="1.1" id="Layer_1" x="0px" y="0px" viewBox="0 2 98 98" style="enable-background:new 0 2 98 98;" xml:space="preserve" width="512" height="512">
<style type="text/css">
	.st0{fill:url(#SVGID_1_);}
	.st1{fill:url(#SVGID_2_);}
</style>
<g>
	
		<linearGradient id="SVGID_1_" gradientUnits="userSpaceOnUse" x1="49" y1="95" x2="49" y2="8.8823" gradientTransform="matrix(1 0 0 -1 0 104)">
		<stop offset="0" style="stop-color:#00EFD1"/>
		<stop offset="1" style="stop-color:#00ACEA"/>
	</linearGradient>
	<path class="st0" d="M76.5,43h-3v-8.3C73.5,21.1,62.5,10,49,10S24.5,21.1,24.5,34.7V43h-3c-2.8,0-5,2.2-5,5v43c0,2.8,2.2,5,5,5h55   c2.8,0,5-2.2,5-5V48C81.5,45.2,79.3,43,76.5,43z M30.5,34.7C30.5,24.4,38.8,16,49,16s18.5,8.4,18.5,18.7V43h-37V34.7z M75.5,90h-53   V49h53V90z"/>
	
		<linearGradient id="SVGID_2_" gradientUnits="userSpaceOnUse" x1="48.5" y1="95" x2="48.5" y2="8.8823" gradientTransform="matrix(1 0 0 -1 0 104)">
		<stop offset="0" style="stop-color:#00EFD1"/>
		<stop offset="1" style="stop-color:#00ACEA"/>
	</linearGradient>
	<path class="st1" d="M48.5,79c1.7,0,3-1.3,3-3v-7c0-1.7-1.3-3-3-3s-3,1.3-3,3v7C45.5,77.7,46.8,79,48.5,79z"/>
</g>
</svg>
