<svg id="Layer_2" height="512" viewBox="0 0 128 128" width="512" xmlns="http://www.w3.org/2000/svg" xmlns:xlink="http://www.w3.org/1999/xlink" data-name="Layer 2"><linearGradient id="linear-gradient" gradientUnits="userSpaceOnUse" x1="106.921" x2="21.079" y1="138.046" y2="52.204"><stop offset="0" stop-color="#ff62b4"/><stop offset="1" stop-color="#ffd70d"/></linearGradient><path d="m127.771 117.107a1.75 1.75 0 0 1 -1.521.885h-124.5a1.75 1.75 0 0 1 -1.5-2.646l62.25-104.484a1.75 1.75 0 0 1 3.007 0l16.363 27.471a1.75 1.75 0 0 1 -3.007 1.791l-14.863-24.947-59.17 99.315h118.34l-28.681-48.14a1.75 1.75 0 0 1 3.011-1.791l30.257 50.786a1.75 1.75 0 0 1 .014 1.76zm-38.408-59.36a1.75 1.75 0 1 0 3.007-1.791l-5.37-9.018a1.75 1.75 0 1 0 -3.007 1.791zm-62.917 36.581a1.748 1.748 0 0 0 -2.4.608l-6.2 10.411a1.75 1.75 0 0 0 1.5 2.646h89.3a1.75 1.75 0 0 0 1.5-2.646l-44.646-74.947a1.75 1.75 0 0 0 -3.007 0l-33.35 55.982a1.75 1.75 0 1 0 3.007 1.791l31.85-53.459 41.572 69.778h-83.144l4.626-7.766a1.75 1.75 0 0 0 -.608-2.398zm31.554-15.189v-22.287a1.75 1.75 0 0 1 1.75-1.75h8.5a1.75 1.75 0 0 1 1.75 1.75v22.287a1.75 1.75 0 0 1 -1.75 1.75h-8.5a1.75 1.75 0 0 1 -1.75-1.75zm3.5-1.75h5v-18.789h-5zm-3.5 9.889a1.75 1.75 0 0 1 1.75-1.75h8.5a1.75 1.75 0 0 1 1.75 1.75v9.891a1.75 1.75 0 0 1 -1.75 1.75h-8.5a1.75 1.75 0 0 1 -1.75-1.75zm3.5 8.141h5v-6.391h-5z" fill="url(#linear-gradient)"/></svg>