<?xml version="1.0"?>
<svg xmlns="http://www.w3.org/2000/svg" xmlns:xlink="http://www.w3.org/1999/xlink" width="512" height="512" viewBox="0 0 128 128"><defs><linearGradient id="a" x1="108.171" y1="119.614" x2="19.829" y2="31.272" gradientUnits="userSpaceOnUse"><stop offset="0" stop-color="#5360d9"/><stop offset="1" stop-color="#79d5dd"/></linearGradient></defs><path d="M30.405,93.97a1.749,1.749,0,0,1,.352-2.45,20.906,20.906,0,0,1,2.595-1.658,1.75,1.75,0,0,1,1.662,3.08,17.533,17.533,0,0,0-2.16,1.379,1.748,1.748,0,0,1-2.449-.351Zm75.155,14.16V121.5a1.75,1.75,0,0,1-1.75,1.75H24.19a1.75,1.75,0,0,1-1.75-1.75V108.13A20.612,20.612,0,0,1,26.3,96.078a1.749,1.749,0,0,1,2.847,2.033A17.15,17.15,0,0,0,25.94,108.13v11.62h76.12V108.13A17.285,17.285,0,0,0,88.133,91.207L76.17,88.857V92.68a12.17,12.17,0,0,1-24.34,0V88.857l-11.2,2.2a1.778,1.778,0,0,1-.339.033,1.75,1.75,0,0,1-.335-3.467L51.83,85.291V83.083A27.78,27.78,0,0,1,36.25,58.15v-.819a9.394,9.394,0,0,1-5-15.8V30.5A25.78,25.78,0,0,1,57,4.75H71A25.78,25.78,0,0,1,96.75,30.5V41.536a9.394,9.394,0,0,1-5,15.8v.819A27.78,27.78,0,0,1,76.17,83.083v2.208l12.637,2.482A20.792,20.792,0,0,1,105.56,108.13ZM95.92,48.09a5.867,5.867,0,0,0-4.17-5.634v11.28A5.921,5.921,0,0,0,95.92,48.09ZM36.25,53.736V42.455a5.828,5.828,0,0,0-2.1,1.149,5.906,5.906,0,0,0,2.1,10.132ZM64,82.4A24.278,24.278,0,0,0,88.25,58.15V32.618C81.6,31.662,73.582,25.745,70.7,23.465a39.233,39.233,0,0,1-7.954,4A1.75,1.75,0,1,1,61.481,24.2a32.061,32.061,0,0,0,8.171-4.309,1.747,1.747,0,0,1,2.229.027c3.066,2.6,12.3,9.335,18.119,9.335A1.749,1.749,0,0,1,91.75,31v7.834c.2.038.4.088.6.139.048.013.1.021.147.034.254.07.506.151.753.242V30.5A22.275,22.275,0,0,0,71,8.25H57A22.275,22.275,0,0,0,34.75,30.5v8.749q.37-.137.752-.241c.058-.016.118-.026.176-.041.19-.049.379-.1.572-.133V31A1.749,1.749,0,0,1,38,29.25a64.411,64.411,0,0,0,14.039-2.1,1.75,1.75,0,0,1,.844,3.4A73.638,73.638,0,0,1,39.75,32.7V58.15A24.278,24.278,0,0,0,64,82.4Zm8.67,2.106a27.659,27.659,0,0,1-17.34,0V92.68a8.67,8.67,0,0,0,17.34,0ZM95.2,103.826a1.75,1.75,0,1,0,3.231-1.347,14.874,14.874,0,0,0-4.47-5.909,1.751,1.751,0,0,0-2.176,2.743A11.352,11.352,0,0,1,95.2,103.826ZM74.033,69.43a1.75,1.75,0,1,0-2.232-2.7A10.67,10.67,0,0,1,64,69.539a10.67,10.67,0,0,1-7.8-2.805,1.75,1.75,0,1,0-2.232,2.7A14.049,14.049,0,0,0,64,73.039,14.049,14.049,0,0,0,74.033,69.43ZM71.667,46.346a4.75,4.75,0,1,1,4.75,4.75A4.756,4.756,0,0,1,71.667,46.346Zm3.5,0a1.25,1.25,0,1,0,1.25-1.25A1.252,1.252,0,0,0,75.167,46.346ZM51.583,51.1a4.75,4.75,0,1,1,4.75-4.75A4.756,4.756,0,0,1,51.583,51.1Zm1.25-4.75a1.25,1.25,0,1,0-1.25,1.25A1.251,1.251,0,0,0,52.833,46.346Z" fill="url(#a)"/></svg>
